<svg width="48" height="48" viewBox="0 0 48 48" fill="none" xmlns="http://www.w3.org/2000/svg">
<path d="M34.9552 20.0002C34.97 20 34.985 20 35 20C39.9706 20 44 24.0294 44 29C44 33.9706 39.9706 38 35 38H14C8.47716 38 4 33.5228 4 28C4 22.8006 7.96796 18.5281 13.0408 18.0454M34.9552 20.0002C34.9848 19.6707 35 19.3371 35 19C35 12.9249 30.0752 8 24 8C18.2465 8 13.5247 12.4172 13.0408 18.0454M34.9552 20.0002C34.7506 22.269 33.8572 24.3392 32.4856 26M13.0408 18.0454C13.3565 18.0154 13.6765 18 14 18C16.2516 18 18.3295 18.7442 20.001 20" stroke="#40679E" stroke-width="3" stroke-linecap="round" stroke-linejoin="round"/>
</svg>
