<svg width="18" height="18" viewBox="0 0 18 18" fill="none" xmlns="http://www.w3.org/2000/svg">
<path d="M13.1082 7.50008C13.1138 7.5 13.1194 7.5 13.125 7.5C14.989 7.5 16.5 9.01102 16.5 10.875C16.5 12.739 14.989 14.25 13.125 14.25H5.25C3.17893 14.25 1.5 12.571 1.5 10.5C1.5 8.55023 2.98799 6.94805 4.89032 6.76703M13.1082 7.50008C13.1193 7.37652 13.125 7.25142 13.125 7.125C13.125 4.84682 11.2782 3 9 3C6.84243 3 5.07175 4.65647 4.89032 6.76703M13.1082 7.50008C13.0315 8.35088 12.6964 9.1272 12.1821 9.75M4.89032 6.76703C5.0087 6.75576 5.12867 6.75 5.25 6.75C6.09437 6.75 6.87355 7.02907 7.50037 7.5" stroke="#EEC759" stroke-width="1.5" stroke-linecap="round" stroke-linejoin="round"/>
</svg>
