<svg width="48" height="48" viewBox="0 0 48 48" fill="none" xmlns="http://www.w3.org/2000/svg">
<path d="M34.9552 18.0183C34.97 18.0182 34.985 18.0182 35 18.0182C39.9706 18.0182 44 22.0538 44 27.0318C44 31.7024 40.453 35.5432 35.9096 36M34.9552 18.0183C34.9848 17.6884 35 17.3543 35 17.0167C35 10.9323 30.0752 6 24 6C18.2465 6 13.5247 10.4239 13.0408 16.0606M34.9552 18.0183C34.7506 20.2906 33.8572 22.364 32.4856 24.0272M13.0408 16.0606C7.96796 16.5441 4 20.8232 4 26.0304C4 30.8756 7.43552 35.072 12 36M13.0408 16.0606C13.3565 16.0305 13.6765 16.0152 14 16.0152C16.2516 16.0152 18.3295 16.7605 20.001 18.0182" stroke="#DEF4FF" stroke-width="3" stroke-linecap="round" stroke-linejoin="round"/>
<path d="M19 37.0068C19 34.4964 21.1064 32.0154 22.5848 30.5834C23.3878 29.8055 24.6122 29.8055 25.4152 30.5834C26.8936 32.0154 29 34.4964 29 37.0068C29 39.4682 27.1066 41.9999 24 41.9999C20.8934 41.9999 19 39.4682 19 37.0068Z" stroke="#DEF4FF" stroke-width="3"/>
</svg>
