<svg width="48" height="48" viewBox="0 0 48 48" fill="none" xmlns="http://www.w3.org/2000/svg">
<path d="M34.9552 17.6214C34.97 17.6213 34.985 17.6213 35 17.6213C39.9706 17.6213 44 21.5236 44 26.3372C44 30.8236 40.5 34.5182 36 35M34.9552 17.6214C34.9848 17.3024 35 16.9793 35 16.6528C35 10.7694 30.0752 6 24 6C18.2465 6 13.5247 10.2778 13.0408 15.7284M34.9552 17.6214C34.7506 19.8187 33.8572 21.8236 32.4856 23.432M13.0408 15.7284C7.96796 16.1959 4 20.3336 4 25.3688C4 30.054 7.43552 34.1028 12 35M13.0408 15.7284C13.3565 15.6993 13.6765 15.6844 14 15.6844C16.2516 15.6844 18.3295 16.4051 20.001 17.6213" stroke="#DEF4FF" stroke-width="3" stroke-linecap="round" stroke-linejoin="round"/>
<path d="M24 30V42M29 33L19.0003 39M19 33L28.9998 39" stroke="#DEF4FF" stroke-width="3" stroke-linecap="round" stroke-linejoin="round"/>
</svg>
