<svg width="18" height="18" viewBox="0 0 18 18" fill="none" xmlns="http://www.w3.org/2000/svg">
<path d="M9 16.5C11.071 16.5 12.75 14.821 12.75 12.75C12.75 11.5233 12.161 10.4341 11.2504 9.75V3.75037C11.2504 3.05111 11.2504 2.70149 11.1361 2.42571C10.9838 2.05838 10.692 1.76653 10.3247 1.61429C10.0489 1.5 9.69922 1.5 9 1.5C8.30078 1.5 7.95112 1.5 7.67535 1.61429C7.30801 1.76653 7.01616 2.05838 6.86393 2.42571C6.74963 2.70149 6.74963 3.05111 6.74963 3.75037V9.75C5.839 10.4341 5.25 11.5233 5.25 12.75C5.25 14.821 6.92893 16.5 9 16.5Z" stroke="#E59898" stroke-width="1.5" stroke-linejoin="round"/>
<path d="M9 11.25C8.17155 11.25 7.5 11.9216 7.5 12.75C7.5 13.5784 8.17155 14.25 9 14.25C9.82845 14.25 10.5 13.5784 10.5 12.75C10.5 11.9216 9.82845 11.25 9 11.25Z" fill="#E59898"/>
<path d="M9 11.25C8.17155 11.25 7.5 11.9216 7.5 12.75C7.5 13.5784 8.17155 14.25 9 14.25C9.82845 14.25 10.5 13.5784 10.5 12.75C10.5 11.9216 9.82845 11.25 9 11.25ZM9 11.25V6" stroke="#E59898" stroke-width="1.5" stroke-linecap="round" stroke-linejoin="round"/>
</svg>
