<svg width="48" height="48" viewBox="0 0 48 48" fill="none" xmlns="http://www.w3.org/2000/svg">
<path d="M28.3176 42.8292C28.6062 42.9398 28.917 43 29.2406 43C30.77 43 32.0098 41.6568 32.0098 40C32.0098 38.3432 30.77 37 29.2406 37C28.6976 37 28.1912 37.1692 27.7638 37.4618C25.6414 39.045 21.7098 41.0756 17.2405 41.602M11.702 41.3872C10.4656 41.127 9.22711 40.7082 8.00977 40.0956" stroke="#DEF4FF" stroke-width="3" stroke-linecap="round"/>
<path d="M38.0098 41C38.526 41 39.9212 41 42.0098 41" stroke="#DEF4FF" stroke-width="3" stroke-linecap="round"/>
<path d="M34.9564 16.8039C34.9712 16.8038 34.9862 16.8038 35.0012 16.8038C39.9698 16.8038 43.7928 20.72 43.9966 25.3004C44.1526 31.4 38.8508 34.616 35.0124 34.496M34.9564 16.8039C34.986 16.4911 35.0012 16.1744 35.0012 15.8543C35.0012 9.92 30.0736 5 24.001 5C18.1235 5 13.4901 9.55436 13.0065 14.8985M34.9564 16.8039C34.752 18.9583 34.0768 20.84 32.4694 22.712M13.0065 14.8985C7.93573 15.3569 4.24531 19.52 4.00541 24.3508C3.84947 29 7.08813 32.24 11.0465 33.8C18.3634 36.56 25.3204 34.208 27.6474 30.248C28.631 28.208 27.4796 25.28 24.7208 24.74C23.0414 24.32 20.1626 25.4 19.9947 28.604M13.0065 14.8985C13.322 14.87 13.6418 14.8554 13.9652 14.8554C16.2159 14.8554 18.2434 15.44 20.0186 16.808" stroke="#DEF4FF" stroke-width="3" stroke-linecap="round" stroke-linejoin="round"/>
</svg>
