<svg width="18" height="18" viewBox="0 0 18 18" fill="none" xmlns="http://www.w3.org/2000/svg">
<path d="M9 10.5V16.5" stroke="#99BC85" stroke-width="1.5" stroke-linecap="round"/>
<path d="M13.5 16.5H4.5" stroke="#99BC85" stroke-width="1.5" stroke-linecap="round"/>
<path d="M9 10.5C9.62132 10.5 10.125 9.99632 10.125 9.375C10.125 8.75368 9.62132 8.25 9 8.25C8.37868 8.25 7.875 8.75368 7.875 9.375C7.875 9.99632 8.37868 10.5 9 10.5Z" stroke="#99BC85" stroke-width="1.5" stroke-linecap="round"/>
<path d="M9 6C9.82843 6 10.5 4.99264 10.5 3.75C10.5 2.50736 9.82843 1.5 9 1.5C8.17157 1.5 7.5 2.50736 7.5 3.75C7.5 4.99264 8.17157 6 9 6Z" stroke="#99BC85" stroke-width="1.5" stroke-linecap="round"/>
<path d="M12.9468 13.4631C11.8841 12.853 11.3541 11.7873 11.7632 11.0828C12.1723 10.3783 13.3654 10.3018 14.4282 10.9119C15.491 11.522 16.0209 12.5877 15.6119 13.2922C15.2027 13.9967 14.0096 14.0732 12.9468 13.4631Z" stroke="#99BC85" stroke-width="1.125" stroke-linecap="round"/>
<path d="M5.05317 13.4631C6.11595 12.853 6.64588 11.7873 6.23682 11.0828C5.82776 10.3783 4.6346 10.3018 3.57183 10.9119C2.50905 11.522 1.97911 12.5877 2.38818 13.2922C2.79724 13.9967 3.9904 14.0732 5.05317 13.4631Z" stroke="#99BC85" stroke-width="1.5" stroke-linecap="round"/>
<path d="M9 6V8.25" stroke="#99BC85" stroke-width="1.5"/>
<path d="M9.75 9.75L12 11.25" stroke="#99BC85" stroke-width="1.5"/>
<path d="M8.25 9.75L6 11.25" stroke="#99BC85" stroke-width="1.5"/>
<path d="M5.625 2.25C3.60742 3.37995 2.25 5.49191 2.25 7.91085C2.25 8.28195 2.28195 8.64578 2.34333 9M12.375 2.25C14.3926 3.37995 15.75 5.49191 15.75 7.91085C15.75 8.28195 15.7181 8.64578 15.6567 9" stroke="#99BC85" stroke-width="1.5" stroke-linecap="round"/>
</svg>
